<svg xmlns="http://www.w3.org/2000/svg" viewBox="0 0 50 50">
    <path style="text-indent:0;text-align:start;line-height:normal;text-transform:none;block-progression:tb;-inkscape-font-specification:Bitstream Vera Sans" d="M 14 2 C 8.4141529 2 3.6875 3.65625 3.6875 3.65625 A 1.0001 1.0001 0 0 0 3 4.75 C 3 4.75 3.5845773 8.4860978 5.46875 12.25 C 6.4108363 14.131951 7.6893546 16.027517 9.4375 17.5 C 11.185645 18.972483 13.441515 20 16.15625 20 C 18.40235 20 19.90625 19.59375 19.90625 19.59375 A 1.0045064 1.0045064 0 1 0 19.375 17.65625 C 19.375 17.65625 18.16215 18 16.15625 18 C 13.926985 18 12.176292 17.227704 10.71875 16 C 9.2612079 14.772296 8.1101637 13.062049 7.25 11.34375 C 5.8784996 8.6039834 5.3868196 6.3199592 5.1875 5.3125 C 6.25961 4.9775241 9.5896359 4 14 4 C 18.371089 4 20.868991 5.8610484 22.125 8.28125 C 23.183929 10.321699 23.272963 12.826976 22.5625 14.96875 C 21.361293 13.591965 19.992466 12.371163 18.625 11.3125 C 15.023965 8.5246556 11.4375 6.84375 11.4375 6.84375 A 1.0001 1.0001 0 0 0 10.84375 6.75 A 1.0001 1.0001 0 0 0 10.5625 8.65625 C 10.5625 8.65625 13.976035 10.243594 17.375 12.875 C 20.773965 15.506406 24 19.12721 24 22.875 L 24 25 A 1.0001 1.0001 0 0 0 24 25.125 C 23.998462 25.187577 24 25.249448 24 25.3125 L 24 26 L 11 26 A 1.0001 1.0001 0 0 0 10.90625 26 A 1.0001 1.0001 0 0 0 10 27 L 10 33 A 1.0001 1.0001 0 0 0 11 34 L 12.1875 34 L 15.03125 47.21875 A 1.0001 1.0001 0 0 0 16 48 L 34 48 A 1.0001 1.0001 0 0 0 34.96875 47.21875 L 37.8125 34 L 39 34 A 1.0001 1.0001 0 0 0 40 33 L 40 27 A 1.0001 1.0001 0 0 0 39 26 L 26 26 L 26 25.3125 C 26 25.259647 25.998597 25.208688 26 25.15625 A 1.0001 1.0001 0 0 0 26 25 C 26.083908 23.434996 26.799742 22.051964 27.90625 20.78125 C 29.086329 19.426047 30.719241 18.25821 32.375 17.3125 C 35.686519 15.421081 39.03125 14.46875 39.03125 14.46875 A 1.002073 1.002073 0 0 0 38.65625 12.5 A 1.0001 1.0001 0 0 0 38.46875 12.53125 C 38.46875 12.53125 34.938481 13.527169 31.375 15.5625 C 30.675939 15.961778 29.989739 16.421816 29.3125 16.90625 C 29.419442 16.120843 29.611482 15.160311 30.03125 14.1875 C 30.955854 12.044745 32.674475 10 37 10 C 41.325127 10 43.904152 10.899675 44.8125 11.25 C 44.600853 12.132405 44.134784 13.800702 42.96875 15.8125 C 41.416508 18.490634 38.970672 21 34.84375 21 C 32.428971 21 30.84375 20.25 30.84375 20.25 A 1.0001 1.0001 0 1 0 30 22.0625 C 30 22.0625 32.006529 23 34.84375 23 C 39.806828 23 42.935742 19.834866 44.6875 16.8125 C 46.439258 13.790134 46.96875 10.78125 46.96875 10.78125 A 1.0001 1.0001 0 0 0 46.40625 9.6875 C 46.40625 9.6875 42.585847 8 37 8 C 31.990525 8 29.329146 10.760505 28.1875 13.40625 C 27.045854 16.051995 27.1875 18.625 27.1875 18.625 A 1.001098 1.001098 0 0 0 27.1875 18.65625 C 26.921569 18.917316 26.650449 19.188312 26.40625 19.46875 C 26.139393 19.775208 25.890399 20.10519 25.65625 20.4375 C 25.317322 19.154948 24.746595 17.937506 24 16.8125 C 25.391874 13.915451 25.450504 10.31937 23.90625 7.34375 C 22.323759 4.2944516 18.963911 2 14 2 z M 12 28 L 38 28 L 38 32 L 12 32 L 12 28 z M 14.21875 34 L 35.78125 34 L 33.1875 46 L 16.8125 46 L 14.21875 34 z" overflow="visible" font-family="Bitstream Vera Sans"/>
</svg>
